<svg xmlns="http://www.w3.org/2000/svg" viewBox="0 0 1024 1024">
  <rect width="1024" height="1024" fill="#E07A5F" />

  <g transform="translate(236 258) scale(0.96)">
    <path fill="#FFFFFF" d="M64 64c0-17.7 14.3-32 32-32l352 0c70.7 0 128 57.3 128 128S518.7 288 448 288c0 53-43 96-96 96l-192 0c-53 0-96-43-96-96L64 64zm448 96c0-35.3-28.7-64-64-64l0 128c35.3 0 64-28.7 64-64zM64 448l384 0c17.7 0 32 14.3 32 32s-14.3 32-32 32L64 512c-17.7 0-32-14.3-32-32s14.3-32 32-32z"/>
  </g>

  <rect x="372" y="664" width="280" height="26" rx="13" fill="#FFFFFF" />

  <path
    fill="none"
    stroke="#FFFFFF"
    stroke-linecap="round"
    stroke-width="24"
    d="M468 250c-36 28-44 66-8 102m88-108c-36 28-44 66-8 102"
    opacity="0.96"
  />
</svg>
